HIERARCHY
ROOT Hips
{
	OFFSET 0.00000 0.00000 0.00000
	CHANNELS 6 Xposition Yposition Zposition Zrotation Yrotation Xrotation 
	JOINT LHipJoint
	{
		OFFSET 0 0 0
		CHANNELS 3 Zrotation Yrotation Xrotation
		JOINT LeftHip
		{
			OFFSET 1.38280 -1.96574 0.54427
			CHANNELS 3 Zrotation Yrotation Xrotation
			JOINT LeftKnee
			{
				OFFSET 2.72096 -7.47578 0.00000
				CHANNELS 3 Zrotation Yrotation Xrotation
				JOINT LeftAnkle
				{
					OFFSET 2.73041 -7.50176 0.00000
					CHANNELS 3 Zrotation Yrotation Xrotation
					JOINT LeftToe
					{
						OFFSET 0.16150 -0.44371 2.18031
						CHANNELS 3 Zrotation Yrotation Xrotation
						End Site
						{
							OFFSET 0.00000 -0.00000 1.12127
						}
					}
				}
			}
		}
	}
	JOINT RHipJoint
	{
		OFFSET 0 0 0
		CHANNELS 3 Zrotation Yrotation Xrotation
		JOINT RightHip
		{
			OFFSET -1.57224 -1.96575 0.54427
			CHANNELS 3 Zrotation Yrotation Xrotation
			JOINT RightKnee
			{
				OFFSET -2.95935 -8.13076 0.00000
				CHANNELS 3 Zrotation Yrotation Xrotation
				JOINT RightAnkle
				{
					OFFSET -2.52345 -6.93311 0.00000
					CHANNELS 3 Zrotation Yrotation Xrotation
					JOINT RightToe
					{
						OFFSET -0.04475 -0.10171 1.86688
						CHANNELS 3 Zrotation Yrotation Xrotation
						End Site
						{
							OFFSET -0.00000 -0.00000 0.95157
						}
					}
				}
			}
		}
	}
	JOINT lowerback
	{
		OFFSET 0 0 0
		CHANNELS 3 Zrotation Yrotation Xrotation
		JOINT Chest
		{
			OFFSET 0.00669 2.07367 0.09104
			CHANNELS 3 Zrotation Yrotation Xrotation
			JOINT Chest2
			{
				OFFSET -0.00664 2.06198 -0.04732
				CHANNELS 3 Zrotation Yrotation Xrotation
				JOINT lowerneck
				{
					OFFSET 0 0 0
					CHANNELS 3 Zrotation Yrotation Xrotation
					JOINT Neck
					{
						OFFSET -0.00021 1.49948 0.16345
						CHANNELS 3 Zrotation Yrotation Xrotation
						JOINT Head
						{
							OFFSET 0.06080 1.50567 -0.26702
							CHANNELS 3 Zrotation Yrotation Xrotation
							End Site
							{
								OFFSET 0.01726 1.56470 -0.11854
							}
						}
					}
				}
				JOINT LeftCollar
				{
					OFFSET 0 0 0
					CHANNELS 3 Zrotation Yrotation Xrotation
					JOINT LeftShoulder
					{
						OFFSET 3.14993 0.82932 -0.22488
CHANNELS 3 Zrotation Xrotation Yrotation
						JOINT LeftElbow
						{
OFFSET 0 -5.682360 -0.000000
CHANNELS 3 Zrotation Xrotation Yrotation
							JOINT LeftWrist
							{
OFFSET 0 -3.171120 0.000000
CHANNELS 3 Zrotation Xrotation Yrotation
								JOINT lhand
								{
									OFFSET 0 0 0
CHANNELS 3 Zrotation Xrotation Yrotation
									JOINT LFingers
									{
OFFSET 0 -0.632690 0.000000
CHANNELS 3 Zrotation Xrotation Yrotation
										End Site
										{
OFFSET 0 -0.510090 0.000000
										}
									}
								}
								JOINT LThumb
								{
OFFSET 0 0.000000 0.000000
CHANNELS 3 Zrotation Xrotation Yrotation
									End Site
									{
OFFSET 0 -0.517880 0.517880
									}
								}
							}
						}
					}
				}
				JOINT RightCollar
				{
					OFFSET 0 0 0
					CHANNELS 3 Zrotation Yrotation Xrotation
					JOINT RightShoulder
					{
						OFFSET -3.10571 0.91279 -0.33334
CHANNELS 3 Zrotation Xrotation Yrotation
						JOINT RightElbow
						{
OFFSET 0 -5.871200 -0.000000
CHANNELS 3 Zrotation Xrotation Yrotation
							JOINT RightWrist
							{
OFFSET 0 -3.375890 0.000000
CHANNELS 3 Zrotation Xrotation Yrotation
								JOINT rhand
								{
									OFFSET 0 0 0
CHANNELS 3 Zrotation Xrotation Yrotation
									JOINT RFingers
									{
OFFSET 0 -0.603260 0.000000
CHANNELS 3 Zrotation Xrotation Yrotation
										End Site
										{
OFFSET 0 -0.486360 0.000000
										}
									}
								}
								JOINT RThumb
								{
OFFSET 0 0.000000 0.000000
CHANNELS 3 Zrotation Xrotation Yrotation
									End Site
									{
OFFSET 0 -0.493790 0.493790
									}
								}
							}
						}
					}
				}
			}
		}
	}
}
MOTION
Frames: 7
Frame Time: 0.008333333333333333
26.090850 18.777198 4.020291 -405.039977 -83.374401 1494.981119 0.000000 0.000000 0.000000 -22.151847 -0.124211 -7.074667 0.311522 3.588116 9.920760 1.294299 6.431677 -24.690934 0.467971 -4.387576 -12.169626 0.000000 0.000000 0.000000 5.960876 28.156462 -78.087210 -17.452583 -19.843678 82.533140 0.113504 6.759237 5.863588 -2.859897 -10.464553 30.494859 -2.653847 -0.663599 -3.268820 1.041267 -0.806289 3.119698 2.506004 -0.526984 5.117337 -4.508046 -3.966743 -20.088398 7.416245 -5.683300 15.898875 2.494586 -2.194903 8.616343 0.000000 0.000000 0.000000 35.060058 -50.428295 -13.958781 44.311971 -50.426843 21.707130 13.572801 -22.206299 -32.505296 0.000000 0.000000 0.000000 -7.125000 0.000000 0.000000 -22.231065 61.851788 9.367147 0.000000 0.000000 0.000000 -38.822984 -31.651456 9.844765 -44.035507 -50.286772 -21.494379 -18.279687 -6.779929 -31.871854 0.000000 0.000000 0.000000 7.125000 0.000000 0.000000 7.576953 -2.979480 8.029695
25.543170 18.705005 4.051182 -403.503107 -83.336511 1496.021269 0.000000 0.000000 0.000000 -22.240436 0.394089 -9.181412 0.409054 4.105439 11.373455 1.440163 4.666586 -24.772491 0.564559 -4.812284 -13.373904 0.000000 0.000000 0.000000 4.092698 29.687270 -78.782227 -17.553394 -19.855868 82.830020 0.160321 7.452454 5.211576 -3.603148 -11.612579 34.374989 -2.660246 -1.006545 -2.654846 2.038560 -1.307298 1.576843 3.525715 -0.737859 3.222005 -3.448268 -4.123187 -23.808812 6.644903 -5.933897 15.791357 1.985307 -2.244182 9.178281 0.000000 0.000000 0.000000 45.760327 -56.442853 -4.361528 44.771947 -50.656109 22.062313 10.664142 -23.352942 -34.187729 0.000000 0.000000 0.000000 -7.125000 0.000000 0.000000 -26.936233 62.621644 11.987607 0.000000 0.000000 0.000000 -50.029257 -42.021368 3.056826 -45.768596 -51.139547 -22.835662 -16.429855 -8.754408 -30.744721 0.000000 0.000000 0.000000 7.125000 0.000000 0.000000 8.500791 -1.515793 8.819414
24.912728 18.735867 4.056696 -406.173683 -83.050514 1502.373139 0.000000 0.000000 0.000000 -21.450209 -0.365063 -11.486387 0.483424 4.458691 12.370816 1.508661 3.418620 -24.648761 0.398412 -4.052844 -11.225320 0.000000 0.000000 0.000000 2.710913 31.159365 -81.750073 -18.274385 -19.928464 84.948964 0.285611 9.483190 4.611997 -3.408793 -11.329085 33.397803 -1.629835 -0.745239 -2.436546 2.840739 -1.017647 0.559113 3.798107 -0.554822 2.021658 -3.670946 -4.374947 -25.790479 6.862895 -6.026484 13.182484 2.058711 -2.288756 8.623830 0.000000 0.000000 0.000000 63.829498 -63.863293 13.979645 41.442110 -48.901386 19.519131 19.081490 -19.409986 -35.677071 0.000000 0.000000 0.000000 -7.125000 0.000000 0.000000 -19.172815 66.256078 9.987413 0.000000 0.000000 0.000000 -67.541324 -52.123120 -11.572567 -42.986462 -49.742976 -20.690451 -18.578222 -14.021820 -27.607062 0.000000 0.000000 0.000000 7.125000 0.000000 0.000000 6.925083 1.279100 6.819099
24.133419 19.051639 4.004593 -414.734583 -82.542790 1515.424224 0.000000 0.000000 0.000000 -19.409713 -1.135205 -14.699093 0.576753 4.863086 13.518575 0.875371 5.742175 -20.656919 0.514596 -4.596761 -12.762153 0.000000 0.000000 0.000000 2.442813 33.683775 -82.516949 -17.795806 -19.882969 83.543274 0.470840 12.082338 3.581313 -4.015688 -12.181261 36.376347 0.316276 -0.163675 -2.496941 2.930528 -0.287103 -0.628749 2.821401 -0.159146 0.769005 -4.001117 -4.763255 -25.908806 7.538149 -6.413553 10.431077 2.280258 -2.486599 7.764992 0.000000 0.000000 0.000000 86.297751 -67.756269 38.205861 39.041694 -47.491546 17.729603 26.496317 -19.750960 -40.017158 0.000000 0.000000 0.000000 -7.125000 0.000000 0.000000 -15.240358 72.658689 10.070881 0.000000 0.000000 0.000000 -86.107891 -59.537437 -30.951921 -39.403044 -47.712244 -17.996401 -19.121906 -17.389578 -22.394171 0.000000 0.000000 0.000000 7.125000 0.000000 0.000000 6.128994 6.529531 5.423753
23.241291 19.847721 3.947950 -407.791073 -80.939082 1512.615125 0.000000 0.000000 0.000000 -16.098534 -4.854209 -17.091445 0.596863 4.945705 13.753715 -0.761186 17.142389 -14.859338 0.143785 -2.439524 -6.722189 0.000000 0.000000 0.000000 4.398077 34.327841 -77.877566 -15.259802 -19.452117 76.017687 0.672477 14.875559 1.297038 -4.031638 -12.202353 36.451535 3.604426 0.005290 -2.498678 2.812476 -0.115981 -1.852854 0.862766 -0.102555 -0.500927 -5.372981 -6.064681 -25.342636 8.562869 -7.717052 7.161851 2.665441 -3.171008 6.765485 0.000000 0.000000 0.000000 83.279049 -68.527701 38.325104 49.512659 -52.793399 25.786435 25.302056 -21.907720 -44.872125 0.000000 0.000000 0.000000 -7.125000 0.000000 0.000000 -26.946975 76.462566 20.177759 0.000000 0.000000 0.000000 -87.658283 -66.098977 -39.116612 -47.684906 -52.014352 -24.338135 -17.783155 -17.862561 -15.852650 0.000000 0.000000 0.000000 7.125000 0.000000 0.000000 6.641601 13.455405 4.947462
22.369545 20.785336 3.863227 -386.676531 -79.553506 1492.231169 0.000000 0.000000 0.000000 -14.383072 -9.571755 -19.233658 1.037171 6.476590 18.174012 -2.171051 25.086147 -12.122370 0.053463 -1.477057 -4.062808 0.000000 0.000000 0.000000 6.514951 32.570222 -68.979878 -12.700618 -18.671190 68.192754 0.639728 15.437197 -1.263187 -4.134943 -12.337879 36.937867 3.881225 -0.282745 -3.076661 2.628179 -0.535069 -1.880647 0.506499 -0.310583 -0.215466 -5.692968 -6.930502 -25.031912 7.592290 -8.580934 6.223823 2.289528 -3.711860 6.423136 0.000000 0.000000 0.000000 59.276587 -68.181737 15.883649 61.492511 -56.694546 35.585762 21.193266 -25.285559 -46.921569 0.000000 0.000000 0.000000 -7.125000 0.000000 0.000000 -38.001420 76.364833 28.774280 0.000000 0.000000 0.000000 -64.444085 -69.052304 -19.456882 -62.361573 -56.906057 -36.313144 -15.451754 -12.757928 -13.253624 0.000000 0.000000 0.000000 7.125000 0.000000 0.000000 8.181492 16.338017 5.607729
21.691278 21.495053 3.785922 -376.239780 -77.989246 1481.118214 0.000000 0.000000 0.000000 -14.164536 -9.589328 -25.158508 2.485374 9.809044 28.362357 -0.752558 16.873577 -14.272940 0.799986 -5.706434 -15.935546 0.000000 0.000000 0.000000 9.859730 30.091166 -60.435689 -10.489511 -17.675727 61.111771 0.589557 15.421309 -2.385333 -4.140664 -12.345268 36.964715 3.457225 -0.101024 -4.157738 2.405831 -0.343981 -1.561745 0.514551 -0.195717 0.721913 -6.378007 -7.661900 -24.475658 7.634406 -9.348696 5.881654 2.317939 -4.112275 6.308620 0.000000 0.000000 0.000000 38.382629 -64.990982 -6.304978 67.488079 -57.995106 40.635373 23.592401 -23.939592 -44.994814 0.000000 0.000000 0.000000 -7.125000 0.000000 0.000000 -29.511775 75.894245 21.820365 0.000000 0.000000 0.000000 -35.295401 -63.774452 4.509491 -81.542394 -59.724977 -52.682440 -19.918733 -20.451311 -9.199536 0.000000 0.000000 0.000000 7.125000 0.000000 0.000000 5.025814 20.223915 2.989928
